<?xml version="1.0" encoding="utf-8"?>
<!-- Generator: Adobe Illustrator 21.0.2, SVG Export Plug-In . SVG Version: 6.00 Build 0)  -->
<svg version="1.1"
	 id="svg5699" inkscape:version="0.48.3.1 r9886" sodipodi:docname="_svgclean2.svg" xmlns:cc="http://creativecommons.org/ns#" xmlns:dc="http://purl.org/dc/elements/1.1/" xmlns:inkscape="http://www.inkscape.org/namespaces/inkscape" xmlns:rdf="http://www.w3.org/1999/02/22-rdf-syntax-ns#" xmlns:sodipodi="http://sodipodi.sourceforge.net/DTD/sodipodi-0.dtd"
	 xmlns="http://www.w3.org/2000/svg" xmlns:xlink="http://www.w3.org/1999/xlink" x="0px" y="0px" viewBox="0 0 261 275"
	 style="enable-background:new 0 0 261 275;" xml:space="preserve">
<style type="text/css">
	.st0{fill:none;}
</style>
<g id="layer1" transform="translate(.000015259 -698.03)" inkscape:groupmode="layer" inkscape:label="Layer 1">
	<rect id="rect4085" x="-45" y="676" class="st0" width="354.3" height="354.3"/>
	
		<g id="g3110" transform="matrix(8.0531 0 0 8.0531 -5742.9 -2219)" inkscape:export-filename="/media/DATA/desain/vector/lomba/moku online store/moku online store.png" inkscape:export-xdpi="150" inkscape:export-ydpi="150">
		<path id="path3112" inkscape:connector-curvature="0" d="M735.4,363.2c-0.1,0-0.3,0-0.4,0.1c-1.5,0.9-4.6,3.3-6.6,4.7
			c-1.4,0.2-2.8,0.6-4.1,1.2c-2.4-0.2-6.4-0.7-8.2-0.8c-1.1-0.1-1.3,1.7-1.2,3.7c1.9-1.7,4.7-2.5,7.5-1.8c2.7,0.7,4.8,2.6,5.7,5
			c-0.2-1.2-0.2-2.5,0.1-3.7c1-4,4.5-6.6,8.7-6.9C736.5,363.7,736,363.2,735.4,363.2L735.4,363.2z M728.6,376.4c0.2,1,0.2,2-0.1,3
			c-1,4-5.3,6.3-9.6,5.3c-0.5-0.1-1.1-0.3-1.6-0.5c0.8,3.1,2.8,6,5.8,7.9c0.3-0.5,0.8-0.8,1.6-0.8c1.8,0,1.3,2.1,1.9,1.2
			c0.6-0.9,2.7,0.2,2.9,1.5c0,0.1,0,0.3,0,0.4c0.1,0,0.2,0,0.3,0c0-0.1,0-0.3,0-0.4c0.2-1.3,2.3-2.3,2.9-1.5s0.1-1.1,1.9-1.2
			c1.2,0,1.8,0.9,2,1.8c2.6-1.2,4.7-3.3,6.1-6c0.9-1.8,1.3-3.6,1.3-5.5c-2.3,1.5-5.2,2-8.2,1.3C732.3,382,729.7,379.5,728.6,376.4
			L728.6,376.4z M728.8,381.6c0,0,2,0.2,2.4,0.4s-0.6,5.1-0.6,5.1s-3.6-3.6-3.5-4C727.3,382.8,728.8,381.6,728.8,381.6L728.8,381.6z
			"/>
		<path id="path3114" inkscape:connector-curvature="0" d="M737.1,366.9c-2.6,0.1-5,1.8-5.6,4.3c-0.8,3.1,1.3,6.3,4.7,7.1
			c3.3,0.8,6.7-1,7.4-4.1s-1.3-6.3-4.7-7.1C738.3,367,737.7,366.9,737.1,366.9L737.1,366.9z M734.7,368.3c0.4,0,0.7,0,1.1,0.1
			c1.5,0.4,2.4,1.8,2.1,3.2c-0.3,1.4-1.8,2.2-3.3,1.8c-1.5-0.4-2.4-1.8-2.1-3.2C732.8,369.2,733.7,368.5,734.7,368.3L734.7,368.3z"
			/>
		<path id="path3116" inkscape:connector-curvature="0" d="M720.7,373.1c-2.1-0.1-4,1.1-4.4,3.1c-0.6,2.2,0.9,4.5,3.3,5.1
			c2.4,0.6,4.8-0.7,5.3-2.9c0.6-2.2-0.9-4.5-3.3-5.1C721.3,373.2,721,373.1,720.7,373.1L720.7,373.1z M721.6,374
			c0.2,0,0.5,0,0.8,0.1c1,0.3,1.7,1.2,1.4,2.2c-0.2,1-1.2,1.5-2.3,1.3c-1-0.3-1.7-1.3-1.4-2.2C720.2,374.6,720.8,374.1,721.6,374
			L721.6,374z"/>
		<path id="path3118" inkscape:connector-curvature="0" d="M731.6,395.5c0,0-1-0.1-0.8-1c0.1-0.9,1.7-1.5,2.1-1
			c0.5,0.6,0.1-0.7,1.4-0.8c1.3,0,1.7,1.3,1.4,2.1C735.6,395.7,731.6,395.5,731.6,395.5L731.6,395.5z"/>
		<path id="path3120" inkscape:connector-curvature="0" d="M727.5,395.3c0,0,0.9-0.2,0.7-1.1c-0.1-0.9-1.5-1.6-2-1
			c-0.4,0.6-0.1-0.8-1.3-0.8c-1.2,0-1.5,1.4-1.3,2.3C723.9,395.5,727.5,395.3,727.5,395.3L727.5,395.3z"/>
	</g>
</g>
</svg>
