<svg width="261" height="275" xmlns="http://www.w3.org/2000/svg" xmlns:svg="http://www.w3.org/2000/svg">
 <style type="text/css">.st0{fill:none;}</style>
 <g>
  <title>Layer 1</title>
  <g id="layer1">
   <rect fill="#ffffff" height="354.3" width="354.3" class="st0" y="-22.030029" x="-44.999985" id="rect4085"/>
   <g transform="matrix(8.0531,0,0,8.0531,-5742.9,-2219) " id="g3110">
    <path fill="#ffffff" d="m735.400002,276.521571c-0.1,0 -0.3,0 -0.4,0.1c-1.5,0.9 -4.6,3.3 -6.6,4.7c-1.4,0.2 -2.8,0.6 -4.1,1.2c-2.4,-0.2 -6.4,-0.7 -8.2,-0.8c-1.1,-0.1 -1.3,1.7 -1.2,3.7c1.9,-1.7 4.7,-2.5 7.5,-1.8c2.7,0.7 4.8,2.6 5.7,5c-0.2,-1.2 -0.2,-2.5 0.1,-3.7c1,-4 4.5,-6.6 8.7,-6.9c-0.4,-1 -0.9,-1.5 -1.5,-1.5l0,0zm-6.8,13.2c0.2,1 0.2,2 -0.1,3c-1,4 -5.3,6.3 -9.6,5.3c-0.5,-0.1 -1.1,-0.3 -1.6,-0.5c0.8,3.1 2.8,6 5.8,7.9c0.3,-0.5 0.8,-0.8 1.6,-0.8c1.8,0 1.3,2.1 1.9,1.2c0.6,-0.9 2.7,0.2 2.9,1.5c0,0.1 0,0.3 0,0.4c0.1,0 0.2,0 0.3,0c0,-0.1 0,-0.3 0,-0.4c0.2,-1.3 2.3,-2.3 2.9,-1.5s0.1,-1.1 1.9,-1.2c1.2,0 1.8,0.9 2,1.8c2.6,-1.2 4.7,-3.3 6.1,-6c0.9,-1.8 1.3,-3.6 1.3,-5.5c-2.3,1.5 -5.2,2 -8.2,1.3c-3.5,-0.9 -6.1,-3.4 -7.2,-6.5l0,0zm0.2,5.2c0,0 2,0.2 2.4,0.4s-0.6,5.1 -0.6,5.1s-3.6,-3.6 -3.5,-4c0.2,-0.3 1.7,-1.5 1.7,-1.5l0,0z" id="path3112"/>
    <path fill="#ffffff" d="m737.100002,280.221571c-2.6,0.1 -5,1.8 -5.6,4.3c-0.8,3.1 1.3,6.3 4.7,7.1c3.3,0.8 6.7,-1 7.4,-4.1s-1.3,-6.3 -4.7,-7.1c-0.6,-0.1 -1.2,-0.2 -1.8,-0.2l0,0zm-2.4,1.4c0.4,0 0.7,0 1.1,0.1c1.5,0.4 2.4,1.8 2.1,3.2c-0.3,1.4 -1.8,2.2 -3.3,1.8c-1.5,-0.4 -2.4,-1.8 -2.1,-3.2c0.3,-1 1.2,-1.7 2.2,-1.9l0,0z" id="path3114"/>
    <path fill="#ffffff" d="m720.700002,286.421571c-2.1,-0.1 -4,1.1 -4.4,3.1c-0.6,2.2 0.9,4.5 3.3,5.1c2.4,0.6 4.8,-0.7 5.3,-2.9c0.6,-2.2 -0.9,-4.5 -3.3,-5.1c-0.3,-0.1 -0.6,-0.2 -0.9,-0.2l0,0zm0.9,0.9c0.2,0 0.5,0 0.8,0.1c1,0.3 1.7,1.2 1.4,2.2c-0.2,1 -1.2,1.5 -2.3,1.3c-1,-0.3 -1.7,-1.3 -1.4,-2.2c0.1,-0.8 0.7,-1.3 1.5,-1.4l0,0z" id="path3116"/>
    <path fill="#ffffff" d="m731.600002,308.821571c0,0 -1,-0.1 -0.8,-1c0.1,-0.9 1.7,-1.5 2.1,-1c0.5,0.6 0.1,-0.7 1.4,-0.8c1.3,0 1.7,1.3 1.4,2.1c-0.1,0.9 -4.1,0.7 -4.1,0.7l0,0z" id="path3118"/>
    <path fill="#ffffff" d="m727.500002,308.621571c0,0 0.9,-0.2 0.7,-1.1c-0.1,-0.9 -1.5,-1.6 -2,-1c-0.4,0.6 -0.1,-0.8 -1.3,-0.8c-1.2,0 -1.5,1.4 -1.3,2.3c0.3,0.8 3.9,0.6 3.9,0.6l0,0z" id="path3120"/>
   </g>
  </g>
 </g>
</svg>